# xmcd CD database file
#
# Track frame offsets:
#	150
#	14915
#	26855
#	40682
#	57675
#	69425
#	79339
#	91529
#	110024
#	132741
#	171114
#	185798
#	195167
#	208664
#	220552
#	236362
#	248379
#	267804
#	292897
#
# Disc length: 4203 seconds
#
# Revision: 6
# Processed by: cddbd v1.5.1PL0 Copyright (c) Steve Scherf et al.
# Submitted via: CDex 1.51
#
DISCID=0f106913
DTITLE=The Who - Who's Better, Who's Best
DYEAR=1988
DGENRE=Rock
TTITLE0=My Generation
TTITLE1=Anyway, Anyhow, Anyhere
TTITLE2=The Kids Are Alright
TTITLE3=Substitute
TTITLE4=I'm A Boy
TTITLE5=Happy Jack
TTITLE6=Pictures Of Lily
TTITLE7=I Can See for Miles
TTITLE8=Who Are You
TTITLE9=Won't Get Fooled Again
TTITLE10=Magic Bus
TTITLE11=I Can't Explain
TTITLE12=Pinball Wizard
TTITLE13=I'm Free
TTITLE14=See Me, Feel Me
TTITLE15=Squeeze Box
TTITLE16=Join Together
TTITLE17=You Better, You Bet
TTITLE18=Baba O'Riley
EXTD=YEAR: 1988
EXTT0=
EXTT1=
EXTT2=
EXTT3=
EXTT4=
EXTT5=
EXTT6=
EXTT7=
EXTT8=
EXTT9=
EXTT10=
EXTT11=
EXTT12=
EXTT13=
EXTT14=
EXTT15=
EXTT16=
EXTT17=
EXTT18=
PLAYORDER=
